<svg id="svg" xmlns="http://www.w3.org/2000/svg" xmlns:xlink="http://www.w3.org/1999/xlink" width="400" height="400" viewBox="0, 0, 400,400"><g id="svgg"><path id="path0" d="M257.353 154.004 C 257.779 154.702,259.092 157.045,260.270 159.211 C 265.744 169.273,283.558 198.828,284.149 198.828 C 284.207 198.828,285.688 199.346,287.440 199.978 C 289.192 200.611,290.625 201.042,290.625 200.936 C 290.625 200.830,287.383 194.643,283.421 187.188 C 279.459 179.733,274.581 170.471,272.582 166.607 L 268.945 159.580 263.086 156.162 C 256.499 152.319,256.271 152.233,257.353 154.004 M127.666 161.908 C 127.426 162.435,127.081 162.775,126.900 162.663 C 126.720 162.551,126.687 162.761,126.829 163.130 C 127.002 163.581,126.938 163.709,126.633 163.520 C 126.328 163.332,126.265 163.459,126.438 163.911 C 126.593 164.314,126.539 164.485,126.303 164.339 C 126.088 164.206,125.911 164.319,125.911 164.591 C 125.911 165.329,123.802 169.607,122.984 170.530 C 122.592 170.972,115.489 184.332,107.200 200.218 C 98.911 216.104,91.421 230.387,90.555 231.958 C 89.689 233.529,89.043 234.872,89.119 234.944 C 89.196 235.015,92.598 233.137,96.680 230.771 C 118.714 217.997,125.460 214.272,136.133 208.984 C 151.440 201.400,162.439 197.085,175.718 193.456 L 181.318 191.925 158.921 178.897 C 146.602 171.731,134.629 164.762,132.313 163.409 L 128.102 160.951 127.666 161.908 " stroke="none" fill="#54b1dc" fill-rule="evenodd"></path><path id="path1" d="M168.807 75.899 C 167.286 79.164,163.676 86.933,160.785 93.163 L 155.529 104.490 156.573 105.141 C 158.762 106.506,264.510 167.969,264.669 167.969 C 264.761 167.969,264.327 167.134,263.705 166.113 C 258.202 157.091,242.160 125.860,236.119 112.408 C 234.408 108.597,232.884 105.477,232.733 105.474 C 232.495 105.469,174.626 71.916,172.407 70.496 C 171.598 69.978,171.486 70.145,168.807 75.899 M153.781 108.026 C 152.863 109.950,152.992 110.278,153.952 108.459 C 154.387 107.633,154.675 106.888,154.590 106.804 C 154.506 106.720,154.142 107.269,153.781 108.026 M250.418 119.336 C 250.418 119.551,250.670 120.166,250.977 120.703 C 251.284 121.240,251.535 121.504,251.535 121.289 C 251.535 121.074,251.284 120.459,250.977 119.922 C 250.670 119.385,250.418 119.121,250.418 119.336 M260.742 140.625 C 261.075 141.270,261.436 141.797,261.544 141.797 C 261.651 141.797,261.466 141.270,261.133 140.625 C 260.800 139.980,260.439 139.453,260.331 139.453 C 260.224 139.453,260.409 139.980,260.742 140.625 M209.668 188.166 C 210.151 188.259,210.942 188.259,211.426 188.166 C 211.909 188.073,211.514 187.997,210.547 187.997 C 209.580 187.997,209.185 188.073,209.668 188.166 M227.447 188.171 C 228.041 188.261,228.919 188.258,229.400 188.166 C 229.880 188.073,229.395 187.999,228.320 188.002 C 227.246 188.005,226.853 188.081,227.447 188.171 M233.691 188.551 C 234.067 188.649,234.683 188.649,235.059 188.551 C 235.435 188.452,235.127 188.372,234.375 188.372 C 233.623 188.372,233.315 188.452,233.691 188.551 M287.891 193.900 C 287.891 194.319,289.053 196.484,289.278 196.484 C 289.385 196.484,289.183 195.913,288.828 195.215 C 288.102 193.789,287.891 193.492,287.891 193.900 M300.781 219.141 C 301.220 220.000,301.666 220.703,301.774 220.703 C 301.881 220.703,301.610 220.000,301.172 219.141 C 300.733 218.281,300.287 217.578,300.179 217.578 C 300.072 217.578,300.343 218.281,300.781 219.141 " stroke="none" fill="#289cd4" fill-rule="evenodd"></path><path id="path2" d="M199.767 6.251 C 205.400 31.144,212.591 54.573,222.234 79.455 C 226.846 91.355,230.992 101.198,231.231 100.813 C 231.349 100.624,234.181 102.065,237.524 104.016 L 243.603 107.563 247.848 116.379 C 255.808 132.909,274.964 170.864,282.956 185.938 C 287.341 194.209,290.871 201.039,290.802 201.115 C 290.315 201.643,284.261 199.017,283.419 197.913 C 282.091 196.172,273.176 181.819,268.750 174.295 C 266.709 170.825,264.918 167.983,264.770 167.978 C 264.622 167.973,240.030 153.728,210.120 136.324 C 180.210 118.919,155.714 104.725,155.685 104.781 C 154.399 107.256,151.172 114.224,151.172 114.524 C 151.172 115.027,165.570 129.415,170.464 133.802 C 172.373 135.514,174.307 137.282,174.761 137.731 C 176.010 138.967,181.790 143.685,185.742 146.694 C 187.676 148.166,189.346 149.474,189.453 149.600 C 189.561 149.727,190.615 150.522,191.797 151.367 C 192.979 152.212,194.033 153.007,194.141 153.133 C 194.248 153.259,194.951 153.741,195.703 154.205 C 196.455 154.668,197.581 155.494,198.205 156.039 C 198.830 156.585,199.518 157.031,199.735 157.031 C 199.952 157.031,200.038 157.123,199.926 157.236 C 199.813 157.348,197.103 156.286,193.904 154.875 C 188.878 152.658,185.804 151.209,176.172 146.512 C 175.205 146.041,173.711 145.223,172.852 144.694 C 171.992 144.166,171.025 143.614,170.703 143.468 C 170.381 143.322,168.838 142.447,167.274 141.523 C 165.710 140.600,164.320 139.844,164.186 139.844 C 164.051 139.844,163.309 139.360,162.537 138.770 C 161.765 138.179,160.518 137.364,159.766 136.959 C 159.014 136.555,157.959 135.884,157.422 135.468 C 156.885 135.052,154.951 133.643,153.125 132.337 C 151.299 131.030,149.717 129.855,149.609 129.724 C 149.502 129.594,148.711 128.968,147.852 128.332 C 146.992 127.697,146.053 126.947,145.764 126.665 C 145.327 126.240,145.016 126.617,143.918 128.908 C 143.192 130.424,141.524 133.680,140.212 136.144 C 138.899 138.609,137.926 140.625,138.048 140.625 C 138.170 140.625,138.821 139.526,139.494 138.184 C 140.167 136.841,140.761 135.693,140.814 135.632 C 141.039 135.375,230.265 187.574,230.176 187.911 C 230.122 188.115,231.001 188.281,232.129 188.282 C 241.237 188.284,264.517 192.723,278.906 197.202 C 284.592 198.972,283.083 197.423,292.093 210.742 C 297.821 219.209,307.475 232.931,308.307 233.789 C 308.516 234.004,307.982 232.861,307.120 231.250 C 306.259 229.639,302.258 221.904,298.228 214.063 C 294.199 206.221,289.229 196.553,287.183 192.578 C 265.504 150.466,243.522 105.839,240.811 98.438 C 240.291 97.018,238.008 92.071,234.773 85.352 C 230.211 75.875,222.507 58.430,220.357 52.704 C 219.515 50.465,217.655 46.084,216.222 42.969 C 214.789 39.853,210.527 30.186,206.751 21.484 C 199.747 5.345,199.381 4.548,199.767 6.251 M217.496 187.790 C 218.847 187.866,220.956 187.865,222.183 187.788 C 223.410 187.711,222.305 187.648,219.727 187.649 C 217.148 187.650,216.145 187.713,217.496 187.790 " stroke="none" fill="#3aa3d8" fill-rule="evenodd"></path><path id="path3" d="M231.250 100.726 C 231.250 100.919,231.670 102.022,232.184 103.175 C 236.932 113.841,238.655 117.553,243.038 126.563 C 249.177 139.179,256.306 152.734,256.803 152.734 C 257.278 152.734,267.940 158.894,268.894 159.720 C 269.296 160.067,265.683 152.441,260.867 142.773 C 256.050 133.105,250.193 121.224,247.852 116.370 L 243.594 107.545 239.293 105.042 C 236.927 103.665,234.149 102.052,233.120 101.457 C 232.092 100.862,231.250 100.533,231.250 100.726 M139.308 138.382 C 138.477 139.938,136.835 143.145,135.660 145.508 C 132.286 152.297,131.338 154.155,128.441 159.668 C 126.945 162.515,125.819 164.844,125.940 164.844 C 126.060 164.844,126.600 163.974,127.139 162.910 L 128.118 160.976 132.126 163.300 C 134.330 164.578,146.328 171.567,158.789 178.830 L 181.445 192.035 184.570 191.341 C 195.351 188.947,206.942 187.773,220.007 187.752 C 225.747 187.742,230.381 187.672,230.305 187.596 C 230.148 187.440,140.992 135.545,140.888 135.550 C 140.851 135.551,140.140 136.826,139.308 138.382 M162.695 138.833 C 163.340 139.387,164.028 139.841,164.225 139.842 C 164.649 139.844,164.644 139.840,162.891 138.708 L 161.523 137.826 162.695 138.833 M273.438 168.359 C 274.088 169.648,274.709 170.703,274.816 170.703 C 274.923 170.703,274.479 169.648,273.828 168.359 C 273.177 167.070,272.557 166.016,272.450 166.016 C 272.342 166.016,272.787 167.070,273.438 168.359 " stroke="none" fill="#48acdc" fill-rule="evenodd"></path><path id="path4" d="M187.706 27.220 C 171.404 67.508,164.921 82.793,154.798 104.810 C 152.544 109.711,150.778 113.799,150.874 113.894 C 151.025 114.046,155.216 105.173,168.174 77.264 C 171.473 70.157,171.589 69.972,172.404 70.494 C 173.865 71.429,232.452 105.469,232.601 105.469 C 232.679 105.469,231.514 102.612,230.011 99.121 C 219.845 75.507,210.630 49.110,204.338 25.586 C 202.101 17.221,199.127 4.649,199.336 4.440 C 199.411 4.365,201.111 8.085,203.112 12.708 C 205.114 17.331,206.811 21.053,206.884 20.980 C 207.077 20.787,198.746 1.171,198.473 1.177 C 198.346 1.180,193.501 12.899,187.706 27.220 M207.059 21.680 C 207.059 21.895,207.310 22.510,207.617 23.047 C 207.924 23.584,208.175 23.848,208.175 23.633 C 208.175 23.418,207.924 22.803,207.617 22.266 C 207.310 21.729,207.059 21.465,207.059 21.680 M208.231 24.414 C 208.231 24.629,208.482 25.244,208.789 25.781 C 209.096 26.318,209.347 26.582,209.347 26.367 C 209.347 26.152,209.096 25.537,208.789 25.000 C 208.482 24.463,208.231 24.199,208.231 24.414 M208.008 188.306 C 175.360 190.605,151.571 199.407,104.337 226.664 C 96.517 231.177,89.838 234.947,89.493 235.042 C 89.148 235.138,85.985 240.596,82.450 247.197 C 67.617 274.892,38.357 328.328,14.094 372.032 C 7.188 384.472,1.587 394.784,1.647 394.948 C 1.708 395.111,5.801 392.957,10.742 390.161 C 71.626 355.707,117.095 336.351,153.320 329.465 C 157.787 328.616,157.657 328.781,156.902 324.923 C 146.028 269.340,177.829 217.297,212.109 234.573 C 235.474 246.348,249.333 289.293,241.629 326.045 C 240.960 329.238,239.923 328.548,248.243 330.445 C 286.651 339.202,328.414 357.294,386.453 390.317 C 391.355 393.107,395.430 395.325,395.509 395.247 C 395.587 395.168,390.327 385.263,383.819 373.236 C 377.311 361.208,369.803 347.324,367.135 342.383 L 362.284 333.398 352.724 325.650 C 330.967 308.014,314.948 297.102,298.242 288.538 C 295.602 287.184,295.920 287.233,302.814 289.236 C 318.830 293.890,335.304 300.605,346.060 306.863 C 347.867 307.914,348.495 308.135,348.311 307.656 C 348.171 307.290,343.804 299.046,338.607 289.335 C 333.410 279.625,323.395 260.781,316.351 247.461 C 303.266 222.716,300.269 217.248,305.844 228.288 C 307.571 231.707,308.933 234.557,308.870 234.619 C 308.618 234.872,295.871 216.839,288.955 206.445 C 286.382 202.578,284.167 199.294,284.033 199.147 C 283.629 198.704,273.702 195.805,266.211 193.943 C 246.358 189.007,226.022 187.038,208.008 188.306 M299.414 216.016 C 299.958 217.090,300.492 217.969,300.599 217.969 C 300.707 217.969,300.349 217.090,299.805 216.016 C 299.260 214.941,298.727 214.063,298.620 214.063 C 298.512 214.063,298.870 214.941,299.414 216.016 " stroke="none" fill="#1494d4" fill-rule="evenodd"></path></g></svg>